<svg width="284" height="43" viewBox="0 0 284 43" fill="none" xmlns="http://www.w3.org/2000/svg">
<path d="M92.1345 10.2065H87.1549V34.353H92.1345V10.2065Z" fill="#2A3362"/>
<path d="M111.407 25.7854C111.407 29.118 109.132 30.6153 106.103 30.6153C103.073 30.6153 101.049 29.118 101.049 25.9544V17.3491H96.0693V27.0438C96.0693 31.8708 99.2808 34.6936 104.622 34.6936C107.979 34.6936 109.855 33.5283 111.113 32.2116H111.404L111.836 34.3557H116.417V17.3491H111.407V25.7854Z" fill="#2A3362"/>
<path d="M160.253 30.9882C156.609 30.9882 154.553 29.4238 154.229 27.1458H170.033C170.106 26.6721 170.142 26.1941 170.141 25.7155C170.107 19.598 165.195 17.0083 159.941 17.0083C153.842 17.0083 149.258 20.4457 149.258 25.9893C149.258 31.2591 153.663 34.6936 160.265 34.6936C165.789 34.6936 169.467 32.3835 170.228 28.8441H165.307C164.692 30.2395 162.924 30.9882 160.253 30.9882ZM159.944 20.7166C163.121 20.7166 164.961 22.0421 165.251 23.921H154.337C154.804 22.1207 156.646 20.7166 159.928 20.7166H159.944Z" fill="#2A3362"/>
<path d="M178.601 19.7902H178.292L177.822 17.3403H173.297V34.3556H178.276V27.0438C178.276 23.7433 180.295 21.908 184.05 21.908C184.733 21.8991 185.414 21.9557 186.084 22.077V17.3491H185.389C182.069 17.3491 180.007 17.9958 178.601 19.7902Z" fill="#2A3362"/>
<path d="M210.534 29.048H210.246L205.987 18.4037H200.862L196.677 29.016H196.352L192.383 17.3491H187.438L193.536 34.3557H198.952L203.282 23.5045H203.57L207.829 34.3557H213.278L219.377 17.3491H214.431L210.534 29.048Z" fill="#2A3362"/>
<path d="M239.196 29.4035V23.7113C239.196 19.0853 235.045 17.0112 229.883 17.0112C224.4 17.0112 220.972 19.4611 220.502 23.1287H225.481C225.843 21.5294 227.287 20.6468 229.883 20.6468C232.479 20.6468 234.21 21.5644 234.21 23.4346V23.8686L226.09 24.4512C222.338 24.7251 219.599 26.2894 219.599 29.6219C219.599 33.0565 222.74 34.6878 227.358 34.6878C231.085 34.6878 233.357 33.709 234.748 32.2321H234.995C235.777 33.8925 237.363 34.3499 239.088 34.3499H241.18V30.8862H240.711C239.663 30.8862 239.196 30.4114 239.196 29.4035ZM234.213 27.6003C234.213 30.289 230.813 31.1717 227.899 31.1717C225.914 31.1717 224.616 30.6969 224.616 29.4035C224.616 28.2382 225.735 27.6702 227.398 27.5333L234.217 27.0584L234.213 27.6003Z" fill="#2A3362"/>
<path d="M257.606 17.3491L251.795 29.6627H251.47L245.588 17.3491H240.21L248.617 34.3557H254.574L262.944 17.3491H257.606Z" fill="#2A3362"/>
<path d="M278.862 28.8441C278.244 30.2395 276.479 30.9882 273.809 30.9882C270.164 30.9882 268.109 29.4238 267.784 27.1458H283.588C283.661 26.6721 283.698 26.1941 283.697 25.7155C283.663 19.598 278.751 17.0083 273.496 17.0083C267.398 17.0083 262.817 20.4457 262.817 25.9893C262.817 31.2591 267.219 34.6936 273.821 34.6936C279.345 34.6936 283.023 32.3835 283.783 28.8441H278.862ZM273.484 20.7166C276.662 20.7166 278.501 22.0421 278.791 23.921H267.88C268.353 22.1207 270.189 20.7166 273.472 20.7166H273.484Z" fill="#2A3362"/>
<path d="M79.0628 16.0968C79.0628 14.5995 80.1817 13.9557 81.6252 13.9557C82.2966 13.9616 82.9641 14.0527 83.6096 14.2266L84.4411 10.8241C83.2358 10.4225 81.9671 10.2156 80.6886 10.2124C77.0073 10.2124 74.0493 12.0506 74.0493 15.8579V17.3494H69.7528V21.0753H74.0493V34.356H79.0628V21.0724H84.676V17.3494H79.0628V16.0968Z" fill="#2A3362"/>
<path d="M127.405 12.5542H122.769L122.509 17.3491H118.59V21.0749H122.417V29.4588C122.417 32.3136 123.962 34.7023 128.598 34.7023C129.8 34.7023 130.999 34.5773 132.172 34.3294V30.7493C131.495 30.8921 130.806 30.9721 130.113 30.9881C127.625 30.9881 127.408 29.6627 127.408 28.6402V21.0662H132.354V17.3491H127.405V12.5542Z" fill="#2A3362"/>
<path d="M143.043 12.5542H138.422L138.162 17.3491H134.233V21.0749H138.06V29.4588C138.06 32.3136 139.605 34.7023 144.242 34.7023C145.441 34.6988 146.636 34.5708 147.806 34.3207V30.7493C147.129 30.8921 146.44 30.9721 145.747 30.9881C143.259 30.9881 143.043 29.6627 143.043 28.6402V21.0662H148.004V17.3491H143.043V12.5542Z" fill="#2A3362"/>
<path d="M0.43811 9.56267C0.43811 6.83312 1.28503 4.50266 3.06233 2.82764L6.15329 5.74071C2.71306 8.97131 5.71747 19.0156 15.5127 28.2559C25.308 37.4962 35.9718 40.3248 39.4089 37.0883L42.4999 40.0014C36.7012 45.4663 23.4936 41.589 12.4372 31.166C4.76854 23.9358 0.43811 15.7326 0.43811 9.56267Z" fill="#009A46"/>
<path d="M19.9297 42.5127C17.0334 42.5127 14.5607 41.7145 12.7803 40.0395L15.8712 37.1264C19.3053 40.3628 29.9629 37.5313 39.7674 28.294C49.572 19.0566 52.5702 9.0123 49.1361 5.77587L52.2271 2.86279C58.0288 8.32773 53.9117 20.7753 42.8522 31.1954C35.1805 38.4344 26.4763 42.5127 19.9297 42.5127Z" fill="#FF5805"/>
<path d="M43.8753 27.0266C41.9991 21.9345 38.1663 16.4929 33.0817 11.7038C22.0253 1.28083 8.81767 -2.59939 3.01903 2.86845C2.60793 3.25881 2.96339 4.22303 3.8165 5.02704C4.6696 5.83105 5.69271 6.16314 6.10381 5.7757C9.54095 2.53928 20.1986 5.37079 30 14.6111C34.6364 18.9807 38.0921 23.8601 39.7582 28.3754C41.2171 32.3342 41.0749 35.527 39.3749 37.1292C38.9607 37.5166 39.3192 38.4837 40.1693 39.2848C41.0193 40.0859 42.0455 40.4238 42.4597 40.0335C45.4301 37.234 45.9339 32.6081 43.8753 27.0266Z" fill="#F5AFCB"/>
<path d="M52.2209 2.86841C49.2443 0.0631139 44.3421 -0.411718 38.4136 1.5313C33.0137 3.29663 27.2367 6.91176 22.1552 11.7009C11.0988 22.1209 6.98165 34.5685 12.7803 40.0364C13.1945 40.4238 14.2176 40.0888 15.0707 39.2877C15.9238 38.4866 16.2793 37.5195 15.8651 37.1291C12.4217 33.8927 15.4354 23.8484 25.2399 14.6081C29.8764 10.2385 35.0537 6.98167 39.8447 5.41152C44.0453 4.03946 47.433 4.17055 49.1361 5.77274C49.5472 6.16018 50.5734 5.82518 51.4234 5.02117C52.2735 4.21716 52.632 3.25585 52.2209 2.86841Z" fill="#FF9B00"/>
</svg>
