<svg width="198" height="41" viewBox="0 0 198 41" fill="none" xmlns="http://www.w3.org/2000/svg">
<path fill-rule="evenodd" clip-rule="evenodd" d="M138.738 33.6637H133.756C133.226 33.6637 132.696 33.3346 132.696 32.9397V29.0563C132.696 28.7272 133.226 28.3981 133.756 28.3981H138.738C139.374 28.3981 139.904 28.7272 139.904 29.0563V32.9397C139.904 33.3346 139.374 33.6637 138.738 33.6637ZM25.5235 33.6637H20.4353C19.7992 33.6637 19.2692 33.2688 19.2692 32.9397V21.6186C19.2692 18.6567 18.4211 17.8669 14.7109 17.8669C12.8028 17.8669 10.5767 18.2618 8.24457 19.0516V32.9397C8.24457 33.2688 7.71454 33.6637 7.07851 33.6637H1.99022C1.35419 33.6637 0.824158 33.2688 0.824158 32.9397V0.885252C0.824158 0.556152 1.35419 0.227051 1.99022 0.227051H7.07851C7.71454 0.227051 8.24457 0.556152 8.24457 0.885252V15.2999C10.3647 14.51 12.6968 14.0493 16.619 14.0493C24.3575 14.0493 26.6896 17.4061 26.6896 21.6186V32.9397C26.6896 33.2688 26.1596 33.6637 25.5235 33.6637ZM46.8307 22.6059C46.8307 19.7756 44.8166 17.9327 40.8944 17.9327C36.9722 17.9327 34.8521 19.7756 34.8521 22.6059V25.3704C34.8521 28.2006 36.9722 29.9778 40.8944 29.9778C44.8166 29.9778 46.8307 28.2006 46.8307 25.3704V22.6059ZM40.8944 33.927C32.0959 33.927 27.5376 30.3069 27.5376 25.3704V22.6059C27.5376 17.6694 32.0959 14.0493 40.8944 14.0493C49.5869 14.0493 54.2511 17.6694 54.2511 22.6059V25.3704C54.2511 30.3069 49.5869 33.927 40.8944 33.927ZM70.6821 33.6637C69.304 33.7953 68.1379 33.927 66.8658 33.927C60.5055 33.927 57.9613 33.0713 57.9613 28.4639V17.6694L52.7671 17.2087C52.131 17.1428 51.601 16.8796 51.601 16.4846V14.9708C51.601 14.5758 52.131 14.2467 52.7671 14.2467H57.9613V11.4165C57.9613 11.0874 58.4914 10.8241 59.1274 10.7583L64.3217 10.2317H64.5337C65.0637 10.2317 65.3818 10.3634 65.3818 10.6925V14.2467H70.47C71.0001 14.2467 71.5301 14.5758 71.5301 14.9708V16.9454C71.5301 17.3403 71.0001 17.6694 70.47 17.6694H65.3818V28.4639C65.3818 30.1752 65.5938 30.3727 67.6079 30.3727H70.576C71.3181 30.3727 71.7421 30.5701 71.7421 30.8992V33.0713C71.7421 33.4004 71.4241 33.5979 70.6821 33.6637ZM91.3532 22.1452C91.3532 19.5124 89.0211 17.9327 85.5229 17.9327C82.0247 17.9327 79.5866 19.4465 79.5866 22.1452V22.2768H91.3532V22.1452ZM97.7136 25.502H79.4805V25.6336C79.4805 27.6082 80.8586 29.9778 86.1589 29.9778C90.2931 29.9778 94.1094 29.7803 96.4415 29.6487H96.6535C97.1835 29.6487 97.6076 29.8461 97.6076 30.1752V32.4131C97.6076 33.0055 97.5016 33.2029 96.4415 33.3346C92.8373 33.7295 90.7172 33.927 85.6289 33.927C80.0106 33.927 72.1661 32.084 72.1661 25.3045V22.7375C72.1661 17.4061 76.9364 14.0493 85.5229 14.0493C94.1094 14.0493 98.8796 17.6036 98.8796 22.7375V24.6463C98.8796 25.2387 98.4556 25.502 97.7136 25.502ZM106.724 40.509H101.53C100.894 40.509 100.364 40.1141 100.364 39.785V8.19129C100.364 7.79637 100.894 7.46727 101.53 7.46727H106.724C107.36 7.46727 107.784 7.79637 107.784 8.19129V39.785C107.784 40.1141 107.36 40.509 106.724 40.509ZM120.081 33.927C117.961 33.927 113.19 33.7295 110.116 33.2029C109.374 33.1371 109.056 32.8738 109.056 32.4131V30.3727C109.056 30.1094 109.374 29.8461 110.01 29.8461H110.222C112.872 30.0436 117.961 30.1752 119.551 30.1752C123.049 30.1752 123.579 29.517 123.579 28.5297C123.579 27.9373 122.943 27.4766 121.141 26.8184L113.402 23.9223C112.035 23.4478 110.887 22.7625 110.07 21.9324C109.253 21.1023 108.794 20.1555 108.738 19.1833C108.738 15.7606 112.236 14.0493 119.339 14.0493C123.897 14.0493 126.441 14.3126 129.303 14.7075C130.045 14.8391 130.363 15.1024 130.363 15.4973V17.4719C130.363 17.9327 130.045 18.1301 129.409 18.1301H129.197C127.607 17.9985 123.155 17.7352 119.975 17.7352C117.325 17.7352 116.159 18.1301 116.159 19.1833C116.159 19.7098 117.007 20.0389 118.385 20.5655L125.699 23.3299C130.363 25.1071 131.105 26.8184 131.105 28.5297C131.105 31.5574 127.395 33.927 120.081 33.927ZM166.511 33.6637H161.423C160.787 33.6637 160.257 33.2688 160.257 32.9397V21.7502C160.257 18.7225 159.833 17.8669 155.487 17.8669C153.579 17.8669 151.565 18.3276 149.232 19.1174V32.9397C149.232 33.2688 148.702 33.6637 148.066 33.6637H142.978C142.342 33.6637 141.812 33.2688 141.812 32.9397V14.9708C141.812 14.5758 142.342 14.2467 142.978 14.2467H147.854C148.384 14.2467 148.914 14.5758 148.914 14.9708V15.6948C152.201 14.3784 154.321 14.0493 158.031 14.0493C166.087 14.0493 167.677 17.3403 167.677 21.7502V32.9397C167.677 33.2688 167.147 33.6637 166.511 33.6637ZM189.197 20.6313C189.197 18.9858 188.031 17.7352 183.26 17.7352C178.49 17.7352 177.218 19.0516 177.218 20.6313V20.9604C177.218 22.211 177.96 23.659 183.26 23.659C187.819 23.659 189.197 22.6717 189.197 20.9604V20.6313ZM189.833 34.9801C189.833 34.2561 189.091 33.7953 183.26 32.9397L178.278 32.2156C177.43 32.9397 176.794 33.4004 176.794 34.5852V34.9143C176.794 36.2965 178.278 37.1522 183.472 37.1522C188.879 37.1522 189.833 36.494 189.833 35.2434V34.9801ZM196.935 17.4061L195.027 17.8669C195.981 18.6567 196.405 19.3807 196.405 20.5655V20.8288C196.405 25.1071 191.635 27.0817 183.26 27.0817C180.292 27.0817 178.278 26.7526 177.112 26.4893C176.476 26.7526 176.158 27.0817 176.158 27.4108C176.158 28.069 176.794 28.3323 178.066 28.5297L184.638 29.517C192.271 30.5701 197.147 31.2942 197.147 34.9801V35.2434C197.147 38.7318 193.013 40.6406 183.472 40.6406C174.462 40.6406 169.586 38.5344 169.586 34.9143V34.5852C169.586 33.2029 170.646 31.8207 172.448 30.8334C171.677 30.4588 171.056 29.9788 170.634 29.4308C170.211 28.8828 169.997 28.2816 170.01 27.6741V27.6082C170.01 26.5551 170.646 25.502 172.236 24.8438C170.54 23.7907 169.904 22.5401 169.904 20.8288V20.5655C169.904 17.1428 173.508 14.2467 183.26 14.2467H196.299C197.147 14.2467 197.783 14.7075 197.783 15.1682V16.6163C197.783 17.1428 197.571 17.2087 196.935 17.4061Z" fill="#00AEFF"/>
</svg>
