<svg width="272" height="67" viewBox="0 0 272 67" fill="none" xmlns="http://www.w3.org/2000/svg">
<path fill-rule="evenodd" clip-rule="evenodd" d="M230.521 65.9795C228.167 65.3869 249.299 40.5229 245.775 30.4555C244.018 25.132 226.414 25.7245 226.414 23.9449C226.414 22.1674 260.465 17.4406 263.673 21.8744C268.676 28.1008 233.455 67.1644 230.521 65.9795ZM271.593 8.5547C271.593 12.8089 268.182 16.25 263.966 16.25C259.755 16.25 256.339 12.8089 256.339 8.5547C256.339 4.30262 259.755 0.861198 263.966 0.861198C268.182 0.861198 271.593 4.30262 271.593 8.5547Z" fill="#ED342B"/>
<path fill-rule="evenodd" clip-rule="evenodd" d="M15.384 28.8153C10.547 28.8153 6.62514 32.5107 6.62514 37.0701C6.62514 41.6287 10.547 45.3242 15.384 45.3242C20.221 45.3242 24.1428 41.6287 24.1428 37.0701C24.1428 32.5107 20.221 28.8153 15.384 28.8153ZM26.6183 51.8447L23.5382 48.9405C21.1899 50.3767 18.3911 51.2129 15.384 51.2129C7.0957 51.2129 0.376465 44.881 0.376465 37.0701C0.376465 29.2581 7.0957 22.9262 15.384 22.9262C23.6719 22.9262 30.3911 29.2581 30.3911 37.0701C30.3911 39.9956 29.4478 42.7144 27.8328 44.9708L31.557 48.4807L26.6183 51.8447ZM217.14 34.6261L218.039 30.109C218.039 30.109 211.098 28.1236 205.457 31.8027V49.8719H211.449L211.448 35.1909C213.844 33.4965 217.14 34.6261 217.14 34.6261ZM68.4106 39.9091C68.4106 38.4686 68.6583 37.1109 69.154 35.8351C69.6506 34.5596 70.3674 33.4481 71.3055 32.5004C72.2439 31.5525 73.3827 30.801 74.724 30.2451C76.0641 29.6898 77.5922 29.411 79.308 29.411C80.4332 29.411 81.4658 29.5061 82.4039 29.6955C83.342 29.885 84.2546 30.1564 85.1385 30.5108L83.8924 35.0205C83.3292 34.8179 82.7119 34.6409 82.0425 34.4901C81.3717 34.3379 80.6207 34.2623 79.7902 34.2623C78.0205 34.2623 76.7004 34.7799 75.8296 35.8163C74.9585 36.8526 74.5229 38.2164 74.5229 39.9091C74.5229 41.7029 74.9318 43.0926 75.749 44.0774C76.5667 45.063 77.9938 45.5558 80.0316 45.5558C80.7551 45.5558 81.5328 45.493 82.364 45.3664C83.1945 45.2394 83.9587 45.0382 84.6562 44.76L85.5006 49.3829C84.803 49.6614 83.9319 49.9005 82.8861 50.1027C81.8407 50.3053 80.6877 50.4061 79.4281 50.4061C77.498 50.4061 75.8364 50.1347 74.4428 49.5919C73.0484 49.049 71.9021 48.3093 71.0047 47.3748C70.105 46.4399 69.4496 45.3348 69.034 44.0586C68.6183 42.7828 68.4106 41.3995 68.4106 39.9091ZM141.176 33.4337C137.282 33.4337 136.982 37.386 136.982 37.386H145.37C145.37 37.386 145.07 33.4337 141.176 33.4337ZM150.463 41.3391H136.982C136.982 41.3391 137.282 45.5748 143.273 45.5748C146.268 45.5748 149.265 44.7272 149.265 44.7272L149.863 49.2444C149.863 49.2444 146.868 50.3733 142.674 50.3733C136.682 50.3733 131.29 47.5499 131.29 39.6453C131.29 33.4337 135.483 29.4815 141.475 29.4815C150.463 29.4815 151.062 37.9509 150.463 41.3391ZM191.481 33.4337C187.586 33.4337 187.287 37.386 187.287 37.386H195.675C195.675 37.386 195.375 33.4337 191.481 33.4337ZM200.768 41.3391H187.287C187.287 41.3391 187.586 45.5748 193.578 45.5748C196.574 45.5748 199.569 44.7272 199.569 44.7272L200.168 49.2444C200.168 49.2444 197.173 50.3733 192.979 50.3733C186.987 50.3733 181.595 47.5499 181.595 39.6453C181.595 33.4337 185.789 29.4815 191.781 29.4815C200.768 29.4815 201.367 37.9509 200.768 41.3391Z" fill="#003C58"/>
<path fill-rule="evenodd" clip-rule="evenodd" d="M63.8048 49.874H57.8139V29.9397H63.8048V49.874Z" fill="#003C58"/>
<path fill-rule="evenodd" clip-rule="evenodd" d="M53.5742 29.9426L53.5844 48.0011C53.5844 48.0011 50.5784 50.2686 43.9876 50.2686C37.9968 50.2686 34.7017 47.4452 34.7017 41.2336V29.9419H40.6925V41.2336C40.6925 45.187 42.7897 45.4687 44.5865 45.4687C46.3848 45.4687 47.5842 44.6218 47.5842 44.6218L47.5823 29.9426H53.5742ZM95.7257 37.0961C96.3156 36.4934 96.9235 35.8657 97.553 35.2129C98.1824 34.5601 98.7922 33.913 99.381 33.2726C99.9702 32.6311 100.526 32.0223 101.048 31.4448C101.571 30.8675 102.019 30.3644 102.394 29.9369H109.519C108.097 31.4764 106.71 32.9448 105.356 34.3437C104.003 35.7426 102.522 37.1859 100.913 38.6735C101.717 39.3565 102.548 40.1732 103.407 41.1219C104.264 42.0716 105.095 43.0519 105.899 44.0648C106.704 45.077 107.441 46.0892 108.111 47.1018C108.782 48.1143 109.345 49.0375 109.8 49.8723H102.911C102.482 49.2138 101.993 48.4865 101.446 47.6879C100.897 46.8903 100.315 46.0921 99.6995 45.2949C99.0836 44.4976 98.4342 43.7313 97.7521 42.9966C97.07 42.2629 96.3939 41.642 95.7257 41.1346V49.8723H89.7341V24.9582L95.7257 23.962V37.0961ZM113.277 24.9602L119.268 23.9636V29.8381H125.198V34.5376H119.268V41.5478C119.268 42.736 119.49 43.6836 119.932 44.39C120.374 45.0978 121.265 45.4511 122.606 45.4511C123.25 45.4511 123.913 45.3944 124.597 45.2808C125.28 45.167 125.903 45.0098 126.466 44.8068L127.31 49.2037C126.587 49.4818 125.782 49.7213 124.898 49.9239C124.014 50.1251 122.927 50.2259 121.641 50.2259C120.005 50.2259 118.652 50.0179 117.58 49.6011C116.507 49.1842 115.65 48.6031 115.006 47.858C114.362 47.1133 113.913 46.2097 113.659 45.1482C113.403 44.087 113.277 42.9123 113.277 41.6241V24.9602ZM163.301 50.2512C161.557 50.2264 160.144 50.049 159.058 49.7215C157.973 49.393 157.114 48.9314 156.485 48.3372C155.854 47.7443 155.425 47.0237 155.198 46.1772C154.97 45.3311 154.856 44.3767 154.856 43.3156V24.9579L160.848 23.9613V42.1785C160.848 42.6851 160.887 43.1392 160.968 43.544C161.049 43.9478 161.203 44.2891 161.431 44.5665C161.658 44.8454 161.987 45.0725 162.416 45.2488C162.845 45.4262 163.422 45.5394 164.145 45.5894L163.301 50.2512ZM176.834 50.2512C175.09 50.2264 173.676 50.049 172.591 49.7215C171.505 49.393 170.646 48.9314 170.018 48.3372C169.387 47.7443 168.958 47.0237 168.73 46.1772C168.502 45.3311 168.388 44.3767 168.388 43.3156V24.9579L174.38 23.9613V42.1785C174.38 42.6851 174.421 43.1392 174.501 43.544C174.581 43.9478 174.735 44.2891 174.963 44.5665C175.191 44.8454 175.519 45.0725 175.949 45.2488C176.377 45.4262 176.954 45.5394 177.678 45.5894L176.834 50.2512Z" fill="#003C58"/>
</svg>
