<svg width="293" height="29" viewBox="0 0 293 29" fill="none" xmlns="http://www.w3.org/2000/svg">
<g opacity="0.5">
<path d="M37.3058 23.2708C37.0479 23.6355 36.403 23.7571 36.0161 23.3924C35.6292 23.1492 35.5002 22.5415 35.8871 22.1769C36.0161 21.9337 36.2741 21.8121 36.661 21.8121C36.9189 21.8121 37.1769 21.6907 37.3058 21.5691L39.1116 19.3811C39.2405 19.2595 39.2405 19.1379 39.2405 19.0165V18.044C39.2405 17.6794 38.9826 17.3146 38.5957 17.3146C38.3377 17.3146 38.0798 17.4362 37.9508 17.6794L37.5638 18.044C37.4348 18.1656 37.4348 18.4086 37.4348 18.6517C37.5638 18.8949 37.4348 19.1379 37.3058 19.3811C37.0479 19.7457 36.403 19.8673 36.0161 19.5027C35.6292 19.2595 35.5002 18.6517 35.8871 18.2871C36.0161 18.044 36.2741 17.9224 36.661 17.9224C36.9189 17.9224 37.1769 17.8008 37.3058 17.6794L39.2405 15.3698C39.3695 15.2482 39.3695 15.1266 39.3695 15.005V0.904653C39.3695 0.539986 39.1116 0.296875 38.7246 0.296875H6.86707C3.25569 0.296875 0.289195 3.09265 0.289195 6.61775V14.5189C0.289195 14.6404 0.289195 14.762 0.418173 14.8836L3.90058 19.1379C4.02956 19.2595 4.28752 19.3811 4.54547 19.3811C4.80343 19.3811 5.06137 19.5027 5.31933 19.7457C5.5773 20.1104 5.5773 20.7182 5.19036 20.9613C4.80343 21.2044 4.15853 21.2044 3.90058 20.8398C3.51365 20.7182 3.51365 20.3536 3.51365 20.1104C3.64262 19.8673 3.51365 19.6242 3.38466 19.5027L1.45 17.0715C1.19204 16.7069 0.805108 16.7069 0.547152 16.8284C0.289195 16.9499 0.160217 17.1931 0.160217 17.4362V19.8673C0.160217 19.9888 0.160217 20.1104 0.289195 20.232L1.83694 22.1769C1.96591 22.2984 2.22387 22.42 2.48182 22.42C2.73978 22.42 2.99773 22.5415 3.25569 22.7846C3.51365 23.1492 3.51365 23.7571 3.12671 24.0002C2.73978 24.2433 2.09488 24.2433 1.83694 23.8786C1.70795 23.6355 1.57898 23.3924 1.70795 23.1492C1.83694 22.9062 1.70795 22.6631 1.57898 22.5415L1.45 22.42C1.19204 22.0553 0.805108 22.0553 0.547152 22.1769C0.289195 22.2984 0.160217 22.5415 0.160217 22.7846V27.7684C0.160217 28.133 0.418173 28.4978 0.805108 28.4978C1.06307 28.4978 1.32101 28.3762 1.45 28.133L11.3813 16.2207C11.6392 15.9775 12.0262 15.856 12.4131 16.0991L12.5421 16.2207L19.5068 24.6079C19.7649 24.8511 20.1518 24.8511 20.5387 24.6079C20.7967 24.3649 20.7967 24.1217 20.6677 23.8786L16.7984 16.7069C16.6693 16.4637 16.6693 16.2207 16.9274 15.9775L21.8286 10.0213C22.0865 9.77819 22.4734 9.65664 22.8603 9.89976L22.9893 10.0213L38.0798 28.2546C38.3377 28.6192 38.7246 28.6192 38.9826 28.4978C39.2405 28.3762 39.3695 28.133 39.3695 27.89V21.9337C39.3695 21.5691 39.1116 21.2044 38.7246 21.2044C38.4667 21.2044 38.2086 21.3259 38.0798 21.5691L37.8217 21.9337C37.6929 22.0553 37.6929 22.2984 37.6929 22.5415C37.5638 22.7846 37.5638 23.1492 37.3058 23.2708Z" fill="url(#paint0_linear_117_90)"/>
<path d="M53.0412 20.5967L54.0731 18.7733C54.202 18.5303 54.589 18.5303 54.8469 18.6519C55.7497 19.2596 56.9106 19.7458 58.0713 19.8674C58.8453 19.989 59.6191 19.3811 59.6191 18.6519V18.5303C59.6191 17.6794 58.8453 16.9501 57.2975 16.3423C55.3628 15.6129 52.9122 14.1543 52.9122 11.6016C52.9122 9.41362 54.7179 7.34717 58.2003 7.34717C60.006 7.34717 61.6828 7.95495 63.1015 8.92739C63.3594 9.04895 63.3594 9.41362 63.2305 9.65672L62.0697 11.3585C61.9407 11.6016 61.5538 11.7232 61.2959 11.6016C60.393 10.8723 59.2322 10.5076 58.0713 10.2645C57.4265 10.143 56.7816 10.6292 56.6526 11.3585C56.6526 12.2094 57.2975 12.8172 59.1032 13.4249C60.9088 14.0327 63.7465 15.3698 63.7465 18.2872C63.6174 20.9614 61.1669 22.9062 58.4584 22.7848H58.3293C56.3947 22.9062 54.589 22.2985 53.1703 21.0829C52.9122 20.9614 52.9122 20.9614 53.0412 20.5967Z" fill="#000001"/>
<path d="M77.547 7.95451C77.547 7.7114 77.8049 7.58984 77.934 7.58984H80.7715C81.0293 7.58984 81.1584 7.83296 81.1584 7.95451V16.7065C81.1584 18.1652 82.4481 19.3807 83.9959 19.3807C85.5436 19.3807 86.8334 18.1652 86.8334 16.7065V7.95451C86.8334 7.7114 87.0914 7.58984 87.3493 7.58984H90.1868C90.4448 7.58984 90.5737 7.83296 90.5737 7.95451V16.828C90.5737 20.2317 87.6073 23.0273 83.9959 23.0273C80.3845 23.0273 77.418 20.2317 77.418 16.828L77.547 7.95451Z" fill="#000001"/>
<path d="M107.083 7.71183C107.083 7.46873 107.341 7.34717 107.47 7.34717H107.857C107.986 7.34717 108.115 7.46873 108.244 7.59028L113.532 16.9501L118.82 7.59028C118.949 7.46873 119.078 7.34717 119.207 7.34717H119.594C119.852 7.34717 119.981 7.46873 119.981 7.71183L122.56 22.1769C122.56 22.42 122.431 22.5416 122.302 22.6632H122.173H119.465C119.207 22.6632 119.078 22.5416 119.078 22.2985L118.046 15.6129L114.177 22.6632C114.048 22.7848 113.919 22.9062 113.79 22.9062H113.403C113.274 22.9062 113.145 22.7848 113.016 22.6632L109.147 15.6129L107.986 22.2985C107.986 22.5416 107.857 22.6632 107.599 22.6632H104.89C104.632 22.6632 104.503 22.5416 104.503 22.2985V22.1769L107.083 7.71183Z" fill="#000001"/>
<path d="M138.296 7.71183C138.296 7.46873 138.553 7.34717 138.682 7.34717H139.069C139.199 7.34717 139.328 7.46873 139.456 7.59028L144.744 16.9501L150.162 7.59028C150.291 7.46873 150.419 7.34717 150.549 7.34717H150.935C151.194 7.34717 151.322 7.46873 151.322 7.71183L153.902 22.1769C153.902 22.42 153.772 22.5416 153.644 22.6632H153.515H150.806C150.549 22.6632 150.419 22.5416 150.419 22.2985L149.388 15.6129L145.519 22.6632C145.39 22.7848 145.26 22.9062 145.131 22.9062H144.744C144.616 22.9062 144.487 22.7848 144.357 22.6632L140.488 15.6129L139.456 22.2985C139.456 22.5416 139.199 22.6632 139.069 22.6632H136.361C136.103 22.6632 135.974 22.5416 135.974 22.2985V22.1769L138.296 7.71183Z" fill="#000001"/>
<path d="M168.09 7.95451C168.09 7.7114 168.347 7.58984 168.476 7.58984H171.185C171.443 7.58984 171.572 7.83296 171.572 7.95451V22.1765C171.572 22.4196 171.313 22.5411 171.185 22.5411H168.476C168.219 22.5411 168.09 22.2981 168.09 22.1765V7.95451Z" fill="#000001"/>
<path d="M188.855 10.7503H185.631C185.372 10.7503 185.244 10.5072 185.244 10.3856V7.95451C185.244 7.7114 185.501 7.58984 185.631 7.58984H195.819C196.078 7.58984 196.206 7.83296 196.206 7.95451V10.2641C196.206 10.5072 195.949 10.6287 195.819 10.6287H192.596V22.1765C192.596 22.4196 192.337 22.5411 192.209 22.5411H189.5C189.241 22.5411 189.113 22.2981 189.113 22.1765L188.855 10.7503Z" fill="#000001"/>
<path d="M209.75 7.95451C209.75 7.7114 210.007 7.58984 210.137 7.58984H219.681C219.938 7.58984 220.068 7.83296 220.068 7.95451V10.2641C220.068 10.5072 219.809 10.6287 219.681 10.6287H213.36V13.303H218.519C218.778 13.303 218.906 13.546 218.906 13.6676V15.9772C218.906 16.2202 218.649 16.3418 218.519 16.3418H213.36V19.2592H219.681C219.938 19.2592 220.068 19.5023 220.068 19.6238V21.9334C220.068 22.1765 219.809 22.2981 219.681 22.2981H210.137C209.878 22.2981 209.75 22.055 209.75 21.9334V7.95451Z" fill="#000001"/>
<path d="M241.478 7.34717C243.542 7.34717 245.477 7.95495 247.024 9.41362C247.153 9.53517 247.281 9.77829 247.024 10.0214L245.218 11.7232C245.09 11.8447 244.831 11.8447 244.703 11.7232C243.8 10.9938 242.768 10.6292 241.606 10.6292C239.028 10.6292 236.964 12.5741 236.964 15.0052C236.964 17.4362 239.028 19.3811 241.606 19.3811C242.768 19.3811 243.8 19.0165 244.703 18.4087C244.831 18.2872 245.09 18.2872 245.347 18.4087L247.153 20.232C247.281 20.3536 247.281 20.5967 247.153 20.8398C245.605 22.1769 243.671 22.9062 241.606 22.9062C237.093 22.9062 233.353 19.3811 233.353 15.1268C233.353 10.8723 236.964 7.34717 241.478 7.34717Z" fill="#000001"/>
<path d="M261.083 7.95451C261.083 7.7114 261.34 7.58984 261.469 7.58984H264.178C264.436 7.58984 264.565 7.83296 264.565 7.95451V13.4246H271.143V7.95451C271.143 7.7114 271.4 7.58984 271.53 7.58984H274.238C274.496 7.58984 274.625 7.83296 274.625 7.95451V22.1765C274.625 22.4196 274.368 22.5411 274.238 22.5411H271.53C271.272 22.5411 271.143 22.2981 271.143 22.1765V16.4634H264.565V22.1765C264.565 22.4196 264.306 22.5411 264.178 22.5411H261.469C261.212 22.5411 261.083 22.2981 261.083 22.1765V7.95451Z" fill="#000001"/>
<path fill-rule="evenodd" clip-rule="evenodd" d="M283.137 5.52355C283.009 7.8331 285.073 9.77799 287.524 9.77799C290.103 9.77799 292.037 7.8331 292.037 5.6451C292.037 3.33555 290.103 1.39066 287.652 1.39066C285.202 1.2691 283.137 3.21399 283.137 5.52355ZM283.525 5.52355C283.525 3.4571 285.331 1.75533 287.524 1.75533C289.715 1.75533 291.521 3.4571 291.521 5.52355C291.521 7.58999 289.715 9.29176 287.524 9.29176C285.331 9.29176 283.525 7.58999 283.525 5.52355Z" fill="white"/>
<path d="M288.297 6.98189C288.039 7.10344 287.781 7.10344 287.524 7.10344C286.749 7.10344 286.233 6.61722 286.105 6.00944V5.88789C286.105 5.15855 286.621 4.55078 287.394 4.55078H287.524C287.781 4.55078 288.039 4.55078 288.168 4.67233L288.039 5.037C287.909 4.91545 287.652 4.91545 287.524 4.91545C287.008 4.91545 286.621 5.28012 286.491 5.76633V5.88789C286.491 6.3741 286.878 6.73877 287.265 6.86034H287.394C287.652 6.86034 287.781 6.86034 288.039 6.73877L288.297 6.98189Z" fill="white"/>
</g>
<defs>
<linearGradient id="paint0_linear_117_90" x1="0.223417" y1="28.4995" x2="39.149" y2="28.4995" gradientUnits="userSpaceOnUse">
<stop stop-color="#673090"/>
<stop offset="1" stop-color="#922A8E"/>
</linearGradient>
</defs>
</svg>
